{
	"patcher" : 	{
		"fileversion" : 1,
		"appversion" : 		{
			"major" : 7,
			"minor" : 2,
			"revision" : 5,
			"architecture" : "x86",
			"modernui" : 1
		}
,
		"rect" : [ -847.0, 313.0, 640.0, 480.0 ],
		"bglocked" : 0,
		"openinpresentation" : 0,
		"default_fontsize" : 12.0,
		"default_fontface" : 0,
		"default_fontname" : "Arial",
		"gridonopen" : 1,
		"gridsize" : [ 15.0, 15.0 ],
		"gridsnaponopen" : 1,
		"objectsnaponopen" : 1,
		"statusbarvisible" : 2,
		"toolbarvisible" : 1,
		"lefttoolbarpinned" : 0,
		"toptoolbarpinned" : 0,
		"righttoolbarpinned" : 0,
		"bottomtoolbarpinned" : 0,
		"toolbars_unpinned_last_save" : 0,
		"tallnewobj" : 0,
		"boxanimatetime" : 200,
		"enablehscroll" : 1,
		"enablevscroll" : 1,
		"devicewidth" : 0.0,
		"description" : "",
		"digest" : "",
		"tags" : "",
		"style" : "",
		"subpatcher_template" : "",
		"boxes" : [ 			{
				"box" : 				{
					"id" : "obj-194",
					"maxclass" : "message",
					"numinlets" : 2,
					"numoutlets" : 1,
					"outlettype" : [ "" ],
					"patching_rect" : [ 376.75, 235.0, 29.5, 22.0 ],
					"style" : "",
					"text" : "#6"
				}

			}
, 			{
				"box" : 				{
					"id" : "obj-195",
					"maxclass" : "newobj",
					"numinlets" : 2,
					"numoutlets" : 1,
					"outlettype" : [ "int" ],
					"patching_rect" : [ 338.5, 235.0, 29.5, 22.0 ],
					"style" : "",
					"text" : "int"
				}

			}
, 			{
				"box" : 				{
					"id" : "obj-192",
					"maxclass" : "message",
					"numinlets" : 2,
					"numoutlets" : 1,
					"outlettype" : [ "" ],
					"patching_rect" : [ 299.25, 235.0, 29.5, 22.0 ],
					"style" : "",
					"text" : "#5"
				}

			}
, 			{
				"box" : 				{
					"id" : "obj-193",
					"maxclass" : "newobj",
					"numinlets" : 2,
					"numoutlets" : 1,
					"outlettype" : [ "int" ],
					"patching_rect" : [ 263.5, 235.0, 29.5, 22.0 ],
					"style" : "",
					"text" : "int"
				}

			}
, 			{
				"box" : 				{
					"id" : "obj-190",
					"maxclass" : "message",
					"numinlets" : 2,
					"numoutlets" : 1,
					"outlettype" : [ "" ],
					"patching_rect" : [ 228.5, 235.0, 29.5, 22.0 ],
					"style" : "",
					"text" : "#4"
				}

			}
, 			{
				"box" : 				{
					"id" : "obj-191",
					"maxclass" : "newobj",
					"numinlets" : 2,
					"numoutlets" : 1,
					"outlettype" : [ "int" ],
					"patching_rect" : [ 195.0, 235.0, 29.5, 22.0 ],
					"style" : "",
					"text" : "int"
				}

			}
, 			{
				"box" : 				{
					"id" : "obj-189",
					"maxclass" : "newobj",
					"numinlets" : 0,
					"numoutlets" : 1,
					"outlettype" : [ "" ],
					"patching_rect" : [ 174.75, 297.0, 57.0, 22.0 ],
					"style" : "",
					"text" : "r bcrPort"
				}

			}
, 			{
				"box" : 				{
					"id" : "obj-186",
					"maxclass" : "newobj",
					"numinlets" : 3,
					"numoutlets" : 0,
					"patching_rect" : [ 240.0, 302.0, 40.0, 22.0 ],
					"style" : "",
					"text" : "ctlout"
				}

			}
, 			{
				"box" : 				{
					"id" : "obj-185",
					"maxclass" : "message",
					"numinlets" : 2,
					"numoutlets" : 1,
					"outlettype" : [ "" ],
					"patching_rect" : [ 160.25, 235.0, 29.5, 22.0 ],
					"style" : "",
					"text" : "#3"
				}

			}
, 			{
				"box" : 				{
					"id" : "obj-182",
					"maxclass" : "newobj",
					"numinlets" : 2,
					"numoutlets" : 2,
					"outlettype" : [ "bang", "" ],
					"patching_rect" : [ 111.0, 178.0, 59.0, 22.0 ],
					"style" : "",
					"text" : "select #2"
				}

			}
, 			{
				"box" : 				{
					"id" : "obj-181",
					"maxclass" : "newobj",
					"numinlets" : 0,
					"numoutlets" : 1,
					"outlettype" : [ "" ],
					"patching_rect" : [ 111.0, 145.0, 70.0, 22.0 ],
					"style" : "",
					"text" : "r bcrToggle"
				}

			}
, 			{
				"box" : 				{
					"id" : "obj-180",
					"maxclass" : "newobj",
					"numinlets" : 2,
					"numoutlets" : 1,
					"outlettype" : [ "int" ],
					"patching_rect" : [ 127.25, 235.0, 29.5, 22.0 ],
					"style" : "",
					"text" : "int"
				}

			}
, 			{
				"box" : 				{
					"id" : "obj-176",
					"maxclass" : "newobj",
					"numinlets" : 2,
					"numoutlets" : 1,
					"outlettype" : [ "int" ],
					"patching_rect" : [ 350.0, 147.0, 32.0, 22.0 ],
					"style" : "",
					"text" : "* 50"
				}

			}
, 			{
				"box" : 				{
					"id" : "obj-174",
					"maxclass" : "newobj",
					"numinlets" : 2,
					"numoutlets" : 1,
					"outlettype" : [ "int" ],
					"patching_rect" : [ 301.25, 178.0, 29.5, 22.0 ],
					"style" : "",
					"text" : "/ 2"
				}

			}
, 			{
				"box" : 				{
					"id" : "obj-175",
					"maxclass" : "newobj",
					"numinlets" : 2,
					"numoutlets" : 1,
					"outlettype" : [ "int" ],
					"patching_rect" : [ 301.25, 146.0, 41.0, 22.0 ],
					"style" : "",
					"text" : "+ 127"
				}

			}
, 			{
				"box" : 				{
					"id" : "obj-172",
					"maxclass" : "newobj",
					"numinlets" : 2,
					"numoutlets" : 1,
					"outlettype" : [ "int" ],
					"patching_rect" : [ 249.5, 178.0, 29.5, 22.0 ],
					"style" : "",
					"text" : "/ 2"
				}

			}
, 			{
				"box" : 				{
					"id" : "obj-173",
					"maxclass" : "newobj",
					"numinlets" : 2,
					"numoutlets" : 1,
					"outlettype" : [ "int" ],
					"patching_rect" : [ 249.5, 146.0, 41.0, 22.0 ],
					"style" : "",
					"text" : "+ 127"
				}

			}
, 			{
				"box" : 				{
					"id" : "obj-171",
					"maxclass" : "newobj",
					"numinlets" : 2,
					"numoutlets" : 1,
					"outlettype" : [ "int" ],
					"patching_rect" : [ 201.0, 178.0, 29.5, 22.0 ],
					"style" : "",
					"text" : "/ 2"
				}

			}
, 			{
				"box" : 				{
					"id" : "obj-170",
					"maxclass" : "newobj",
					"numinlets" : 2,
					"numoutlets" : 1,
					"outlettype" : [ "int" ],
					"patching_rect" : [ 201.0, 146.0, 41.0, 22.0 ],
					"style" : "",
					"text" : "+ 127"
				}

			}
, 			{
				"box" : 				{
					"id" : "obj-169",
					"maxclass" : "newobj",
					"numinlets" : 1,
					"numoutlets" : 4,
					"outlettype" : [ "int", "int", "int", "float" ],
					"patching_rect" : [ 243.0, 104.0, 81.0, 22.0 ],
					"style" : "",
					"text" : "unpack i i i 0."
				}

			}
, 			{
				"box" : 				{
					"id" : "obj-168",
					"maxclass" : "newobj",
					"numinlets" : 0,
					"numoutlets" : 1,
					"outlettype" : [ "" ],
					"patching_rect" : [ 243.0, 73.0, 31.0, 22.0 ],
					"style" : "",
					"text" : "r #1"
				}

			}
 ],
		"lines" : [ 			{
				"patchline" : 				{
					"destination" : [ "obj-169", 0 ],
					"disabled" : 0,
					"hidden" : 0,
					"source" : [ "obj-168", 0 ]
				}

			}
, 			{
				"patchline" : 				{
					"destination" : [ "obj-170", 0 ],
					"disabled" : 0,
					"hidden" : 0,
					"source" : [ "obj-169", 0 ]
				}

			}
, 			{
				"patchline" : 				{
					"destination" : [ "obj-173", 0 ],
					"disabled" : 0,
					"hidden" : 0,
					"source" : [ "obj-169", 1 ]
				}

			}
, 			{
				"patchline" : 				{
					"destination" : [ "obj-175", 0 ],
					"disabled" : 0,
					"hidden" : 0,
					"source" : [ "obj-169", 2 ]
				}

			}
, 			{
				"patchline" : 				{
					"destination" : [ "obj-176", 0 ],
					"disabled" : 0,
					"hidden" : 0,
					"source" : [ "obj-169", 3 ]
				}

			}
, 			{
				"patchline" : 				{
					"destination" : [ "obj-171", 0 ],
					"disabled" : 0,
					"hidden" : 0,
					"source" : [ "obj-170", 0 ]
				}

			}
, 			{
				"patchline" : 				{
					"destination" : [ "obj-180", 1 ],
					"disabled" : 0,
					"hidden" : 0,
					"source" : [ "obj-171", 0 ]
				}

			}
, 			{
				"patchline" : 				{
					"destination" : [ "obj-191", 1 ],
					"disabled" : 0,
					"hidden" : 0,
					"source" : [ "obj-172", 0 ]
				}

			}
, 			{
				"patchline" : 				{
					"destination" : [ "obj-172", 0 ],
					"disabled" : 0,
					"hidden" : 0,
					"source" : [ "obj-173", 0 ]
				}

			}
, 			{
				"patchline" : 				{
					"destination" : [ "obj-193", 1 ],
					"disabled" : 0,
					"hidden" : 0,
					"source" : [ "obj-174", 0 ]
				}

			}
, 			{
				"patchline" : 				{
					"destination" : [ "obj-174", 0 ],
					"disabled" : 0,
					"hidden" : 0,
					"source" : [ "obj-175", 0 ]
				}

			}
, 			{
				"patchline" : 				{
					"destination" : [ "obj-195", 1 ],
					"disabled" : 0,
					"hidden" : 0,
					"source" : [ "obj-176", 0 ]
				}

			}
, 			{
				"patchline" : 				{
					"destination" : [ "obj-186", 0 ],
					"disabled" : 0,
					"hidden" : 0,
					"source" : [ "obj-180", 0 ]
				}

			}
, 			{
				"patchline" : 				{
					"destination" : [ "obj-182", 0 ],
					"disabled" : 0,
					"hidden" : 0,
					"source" : [ "obj-181", 0 ]
				}

			}
, 			{
				"patchline" : 				{
					"destination" : [ "obj-180", 0 ],
					"disabled" : 0,
					"hidden" : 0,
					"source" : [ "obj-182", 0 ]
				}

			}
, 			{
				"patchline" : 				{
					"destination" : [ "obj-185", 0 ],
					"disabled" : 0,
					"hidden" : 0,
					"source" : [ "obj-182", 0 ]
				}

			}
, 			{
				"patchline" : 				{
					"destination" : [ "obj-190", 0 ],
					"disabled" : 0,
					"hidden" : 0,
					"source" : [ "obj-182", 0 ]
				}

			}
, 			{
				"patchline" : 				{
					"destination" : [ "obj-191", 0 ],
					"disabled" : 0,
					"hidden" : 0,
					"source" : [ "obj-182", 0 ]
				}

			}
, 			{
				"patchline" : 				{
					"destination" : [ "obj-192", 0 ],
					"disabled" : 0,
					"hidden" : 0,
					"source" : [ "obj-182", 0 ]
				}

			}
, 			{
				"patchline" : 				{
					"destination" : [ "obj-193", 0 ],
					"disabled" : 0,
					"hidden" : 0,
					"source" : [ "obj-182", 0 ]
				}

			}
, 			{
				"patchline" : 				{
					"destination" : [ "obj-194", 0 ],
					"disabled" : 0,
					"hidden" : 0,
					"source" : [ "obj-182", 0 ]
				}

			}
, 			{
				"patchline" : 				{
					"destination" : [ "obj-195", 0 ],
					"disabled" : 0,
					"hidden" : 0,
					"source" : [ "obj-182", 0 ]
				}

			}
, 			{
				"patchline" : 				{
					"destination" : [ "obj-186", 1 ],
					"disabled" : 0,
					"hidden" : 0,
					"source" : [ "obj-185", 0 ]
				}

			}
, 			{
				"patchline" : 				{
					"destination" : [ "obj-186", 0 ],
					"disabled" : 0,
					"hidden" : 0,
					"source" : [ "obj-189", 0 ]
				}

			}
, 			{
				"patchline" : 				{
					"destination" : [ "obj-186", 1 ],
					"disabled" : 0,
					"hidden" : 0,
					"source" : [ "obj-190", 0 ]
				}

			}
, 			{
				"patchline" : 				{
					"destination" : [ "obj-186", 0 ],
					"disabled" : 0,
					"hidden" : 0,
					"source" : [ "obj-191", 0 ]
				}

			}
, 			{
				"patchline" : 				{
					"destination" : [ "obj-186", 1 ],
					"disabled" : 0,
					"hidden" : 0,
					"source" : [ "obj-192", 0 ]
				}

			}
, 			{
				"patchline" : 				{
					"destination" : [ "obj-186", 0 ],
					"disabled" : 0,
					"hidden" : 0,
					"source" : [ "obj-193", 0 ]
				}

			}
, 			{
				"patchline" : 				{
					"destination" : [ "obj-186", 1 ],
					"disabled" : 0,
					"hidden" : 0,
					"source" : [ "obj-194", 0 ]
				}

			}
, 			{
				"patchline" : 				{
					"destination" : [ "obj-186", 0 ],
					"disabled" : 0,
					"hidden" : 0,
					"source" : [ "obj-195", 0 ]
				}

			}
 ],
		"dependency_cache" : [  ],
		"autosave" : 0
	}

}
