{
	"patcher" : 	{
		"fileversion" : 1,
		"appversion" : 		{
			"major" : 7,
			"minor" : 2,
			"revision" : 5,
			"architecture" : "x86",
			"modernui" : 1
		}
,
		"rect" : [ 363.0, 85.0, 1446.0, 929.0 ],
		"bglocked" : 0,
		"openinpresentation" : 0,
		"default_fontsize" : 12.0,
		"default_fontface" : 0,
		"default_fontname" : "Arial",
		"gridonopen" : 1,
		"gridsize" : [ 15.0, 15.0 ],
		"gridsnaponopen" : 1,
		"objectsnaponopen" : 1,
		"statusbarvisible" : 2,
		"toolbarvisible" : 1,
		"lefttoolbarpinned" : 0,
		"toptoolbarpinned" : 0,
		"righttoolbarpinned" : 0,
		"bottomtoolbarpinned" : 0,
		"toolbars_unpinned_last_save" : 0,
		"tallnewobj" : 0,
		"boxanimatetime" : 200,
		"enablehscroll" : 1,
		"enablevscroll" : 1,
		"devicewidth" : 0.0,
		"description" : "",
		"digest" : "",
		"tags" : "",
		"style" : "",
		"subpatcher_template" : "",
		"boxes" : [ 			{
				"box" : 				{
					"id" : "obj-10",
					"maxclass" : "newobj",
					"numinlets" : 0,
					"numoutlets" : 0,
					"patching_rect" : [ 981.0, 246.0, 85.0, 22.0 ],
					"style" : "",
					"text" : "virtualBot Vir2"
				}

			}
, 			{
				"box" : 				{
					"id" : "obj-7",
					"maxclass" : "newobj",
					"numinlets" : 0,
					"numoutlets" : 0,
					"patching_rect" : [ 981.0, 207.0, 85.0, 22.0 ],
					"style" : "",
					"text" : "virtualBot Vir1"
				}

			}
, 			{
				"box" : 				{
					"id" : "obj-133",
					"maxclass" : "button",
					"numinlets" : 1,
					"numoutlets" : 1,
					"outlettype" : [ "bang" ],
					"patching_rect" : [ 276.0, 22.0, 24.0, 24.0 ],
					"style" : ""
				}

			}
, 			{
				"box" : 				{
					"id" : "obj-99",
					"maxclass" : "newobj",
					"numinlets" : 2,
					"numoutlets" : 1,
					"outlettype" : [ "int" ],
					"patching_rect" : [ 1321.0, 566.0, 75.0, 22.0 ],
					"style" : "",
					"text" : "random 256"
				}

			}
, 			{
				"box" : 				{
					"id" : "obj-100",
					"maxclass" : "newobj",
					"numinlets" : 2,
					"numoutlets" : 1,
					"outlettype" : [ "int" ],
					"patching_rect" : [ 1294.0, 539.0, 75.0, 22.0 ],
					"style" : "",
					"text" : "random 256"
				}

			}
, 			{
				"box" : 				{
					"id" : "obj-101",
					"maxclass" : "message",
					"numinlets" : 2,
					"numoutlets" : 1,
					"outlettype" : [ "" ],
					"patching_rect" : [ 1414.0, 571.0, 31.0, 22.0 ],
					"style" : "",
					"text" : "127"
				}

			}
, 			{
				"box" : 				{
					"id" : "obj-102",
					"maxclass" : "button",
					"numinlets" : 1,
					"numoutlets" : 1,
					"outlettype" : [ "bang" ],
					"patching_rect" : [ 1306.0, 473.0, 24.0, 24.0 ],
					"style" : ""
				}

			}
, 			{
				"box" : 				{
					"id" : "obj-103",
					"maxclass" : "newobj",
					"numinlets" : 2,
					"numoutlets" : 1,
					"outlettype" : [ "int" ],
					"patching_rect" : [ 1267.0, 515.0, 75.0, 22.0 ],
					"style" : "",
					"text" : "random 256"
				}

			}
, 			{
				"box" : 				{
					"id" : "obj-105",
					"maxclass" : "slider",
					"numinlets" : 1,
					"numoutlets" : 1,
					"outlettype" : [ "" ],
					"parameter_enable" : 0,
					"patching_rect" : [ 1339.0, 620.0, 20.0, 140.0 ],
					"size" : 256.0,
					"style" : ""
				}

			}
, 			{
				"box" : 				{
					"floatoutput" : 1,
					"id" : "obj-106",
					"maxclass" : "slider",
					"numinlets" : 1,
					"numoutlets" : 1,
					"outlettype" : [ "" ],
					"parameter_enable" : 0,
					"patching_rect" : [ 1399.0, 620.0, 20.0, 140.0 ],
					"size" : 5.0,
					"style" : ""
				}

			}
, 			{
				"box" : 				{
					"id" : "obj-107",
					"maxclass" : "slider",
					"numinlets" : 1,
					"numoutlets" : 1,
					"outlettype" : [ "" ],
					"parameter_enable" : 0,
					"patching_rect" : [ 1302.0, 620.0, 20.0, 140.0 ],
					"size" : 256.0,
					"style" : ""
				}

			}
, 			{
				"box" : 				{
					"id" : "obj-108",
					"maxclass" : "slider",
					"numinlets" : 1,
					"numoutlets" : 1,
					"outlettype" : [ "" ],
					"parameter_enable" : 0,
					"patching_rect" : [ 1263.0, 620.0, 20.0, 140.0 ],
					"size" : 256.0,
					"style" : ""
				}

			}
, 			{
				"box" : 				{
					"id" : "obj-109",
					"maxclass" : "newobj",
					"numinlets" : 4,
					"numoutlets" : 0,
					"patching_rect" : [ 1243.0, 783.0, 139.0, 22.0 ],
					"style" : "",
					"text" : "p-rotate Vir1 torsoLower"
				}

			}
, 			{
				"box" : 				{
					"id" : "obj-110",
					"maxclass" : "newobj",
					"numinlets" : 2,
					"numoutlets" : 1,
					"outlettype" : [ "int" ],
					"patching_rect" : [ 1096.0, 566.0, 75.0, 22.0 ],
					"style" : "",
					"text" : "random 256"
				}

			}
, 			{
				"box" : 				{
					"id" : "obj-111",
					"maxclass" : "newobj",
					"numinlets" : 2,
					"numoutlets" : 1,
					"outlettype" : [ "int" ],
					"patching_rect" : [ 1069.0, 539.0, 75.0, 22.0 ],
					"style" : "",
					"text" : "random 256"
				}

			}
, 			{
				"box" : 				{
					"id" : "obj-112",
					"maxclass" : "message",
					"numinlets" : 2,
					"numoutlets" : 1,
					"outlettype" : [ "" ],
					"patching_rect" : [ 1189.0, 571.0, 31.0, 22.0 ],
					"style" : "",
					"text" : "127"
				}

			}
, 			{
				"box" : 				{
					"id" : "obj-113",
					"maxclass" : "button",
					"numinlets" : 1,
					"numoutlets" : 1,
					"outlettype" : [ "bang" ],
					"patching_rect" : [ 1082.0, 473.0, 24.0, 24.0 ],
					"style" : ""
				}

			}
, 			{
				"box" : 				{
					"id" : "obj-114",
					"maxclass" : "newobj",
					"numinlets" : 2,
					"numoutlets" : 1,
					"outlettype" : [ "int" ],
					"patching_rect" : [ 1042.0, 515.0, 75.0, 22.0 ],
					"style" : "",
					"text" : "random 256"
				}

			}
, 			{
				"box" : 				{
					"id" : "obj-116",
					"maxclass" : "slider",
					"numinlets" : 1,
					"numoutlets" : 1,
					"outlettype" : [ "" ],
					"parameter_enable" : 0,
					"patching_rect" : [ 1114.0, 620.0, 20.0, 140.0 ],
					"size" : 256.0,
					"style" : ""
				}

			}
, 			{
				"box" : 				{
					"floatoutput" : 1,
					"id" : "obj-117",
					"maxclass" : "slider",
					"numinlets" : 1,
					"numoutlets" : 1,
					"outlettype" : [ "" ],
					"parameter_enable" : 0,
					"patching_rect" : [ 1174.0, 620.0, 20.0, 140.0 ],
					"size" : 5.0,
					"style" : ""
				}

			}
, 			{
				"box" : 				{
					"id" : "obj-118",
					"maxclass" : "slider",
					"numinlets" : 1,
					"numoutlets" : 1,
					"outlettype" : [ "" ],
					"parameter_enable" : 0,
					"patching_rect" : [ 1077.0, 620.0, 20.0, 140.0 ],
					"size" : 256.0,
					"style" : ""
				}

			}
, 			{
				"box" : 				{
					"id" : "obj-119",
					"maxclass" : "slider",
					"numinlets" : 1,
					"numoutlets" : 1,
					"outlettype" : [ "" ],
					"parameter_enable" : 0,
					"patching_rect" : [ 1038.0, 620.0, 20.0, 140.0 ],
					"size" : 256.0,
					"style" : ""
				}

			}
, 			{
				"box" : 				{
					"id" : "obj-120",
					"maxclass" : "newobj",
					"numinlets" : 4,
					"numoutlets" : 0,
					"patching_rect" : [ 1020.0, 783.0, 139.0, 22.0 ],
					"style" : "",
					"text" : "p-rotate Vir1 torsoUpper"
				}

			}
, 			{
				"box" : 				{
					"id" : "obj-121",
					"maxclass" : "newobj",
					"numinlets" : 2,
					"numoutlets" : 1,
					"outlettype" : [ "int" ],
					"patching_rect" : [ 860.0, 566.0, 75.0, 22.0 ],
					"style" : "",
					"text" : "random 256"
				}

			}
, 			{
				"box" : 				{
					"id" : "obj-122",
					"maxclass" : "newobj",
					"numinlets" : 2,
					"numoutlets" : 1,
					"outlettype" : [ "int" ],
					"patching_rect" : [ 833.0, 539.0, 75.0, 22.0 ],
					"style" : "",
					"text" : "random 256"
				}

			}
, 			{
				"box" : 				{
					"id" : "obj-123",
					"maxclass" : "message",
					"numinlets" : 2,
					"numoutlets" : 1,
					"outlettype" : [ "" ],
					"patching_rect" : [ 953.0, 571.0, 31.0, 22.0 ],
					"style" : "",
					"text" : "127"
				}

			}
, 			{
				"box" : 				{
					"id" : "obj-124",
					"maxclass" : "button",
					"numinlets" : 1,
					"numoutlets" : 1,
					"outlettype" : [ "bang" ],
					"patching_rect" : [ 846.0, 473.0, 24.0, 24.0 ],
					"style" : ""
				}

			}
, 			{
				"box" : 				{
					"id" : "obj-125",
					"maxclass" : "newobj",
					"numinlets" : 2,
					"numoutlets" : 1,
					"outlettype" : [ "int" ],
					"patching_rect" : [ 806.0, 515.0, 75.0, 22.0 ],
					"style" : "",
					"text" : "random 256"
				}

			}
, 			{
				"box" : 				{
					"id" : "obj-127",
					"maxclass" : "slider",
					"numinlets" : 1,
					"numoutlets" : 1,
					"outlettype" : [ "" ],
					"parameter_enable" : 0,
					"patching_rect" : [ 878.0, 620.0, 20.0, 140.0 ],
					"size" : 256.0,
					"style" : ""
				}

			}
, 			{
				"box" : 				{
					"floatoutput" : 1,
					"id" : "obj-128",
					"maxclass" : "slider",
					"numinlets" : 1,
					"numoutlets" : 1,
					"outlettype" : [ "" ],
					"parameter_enable" : 0,
					"patching_rect" : [ 938.0, 620.0, 20.0, 140.0 ],
					"size" : 5.0,
					"style" : ""
				}

			}
, 			{
				"box" : 				{
					"id" : "obj-129",
					"maxclass" : "slider",
					"numinlets" : 1,
					"numoutlets" : 1,
					"outlettype" : [ "" ],
					"parameter_enable" : 0,
					"patching_rect" : [ 841.0, 620.0, 20.0, 140.0 ],
					"size" : 256.0,
					"style" : ""
				}

			}
, 			{
				"box" : 				{
					"id" : "obj-130",
					"maxclass" : "slider",
					"numinlets" : 1,
					"numoutlets" : 1,
					"outlettype" : [ "" ],
					"parameter_enable" : 0,
					"patching_rect" : [ 802.0, 620.0, 20.0, 140.0 ],
					"size" : 256.0,
					"style" : ""
				}

			}
, 			{
				"box" : 				{
					"id" : "obj-131",
					"maxclass" : "newobj",
					"numinlets" : 4,
					"numoutlets" : 0,
					"patching_rect" : [ 782.0, 783.0, 106.0, 22.0 ],
					"style" : "",
					"text" : "p-rotate Vir1 head"
				}

			}
, 			{
				"box" : 				{
					"id" : "obj-66",
					"maxclass" : "newobj",
					"numinlets" : 2,
					"numoutlets" : 1,
					"outlettype" : [ "int" ],
					"patching_rect" : [ 547.0, 566.0, 75.0, 22.0 ],
					"style" : "",
					"text" : "random 256"
				}

			}
, 			{
				"box" : 				{
					"id" : "obj-67",
					"maxclass" : "newobj",
					"numinlets" : 2,
					"numoutlets" : 1,
					"outlettype" : [ "int" ],
					"patching_rect" : [ 520.0, 539.0, 75.0, 22.0 ],
					"style" : "",
					"text" : "random 256"
				}

			}
, 			{
				"box" : 				{
					"id" : "obj-68",
					"maxclass" : "message",
					"numinlets" : 2,
					"numoutlets" : 1,
					"outlettype" : [ "" ],
					"patching_rect" : [ 640.0, 571.0, 31.0, 22.0 ],
					"style" : "",
					"text" : "127"
				}

			}
, 			{
				"box" : 				{
					"id" : "obj-69",
					"maxclass" : "button",
					"numinlets" : 1,
					"numoutlets" : 1,
					"outlettype" : [ "bang" ],
					"patching_rect" : [ 532.0, 473.0, 24.0, 24.0 ],
					"style" : ""
				}

			}
, 			{
				"box" : 				{
					"id" : "obj-70",
					"maxclass" : "newobj",
					"numinlets" : 2,
					"numoutlets" : 1,
					"outlettype" : [ "int" ],
					"patching_rect" : [ 493.0, 515.0, 75.0, 22.0 ],
					"style" : "",
					"text" : "random 256"
				}

			}
, 			{
				"box" : 				{
					"id" : "obj-71",
					"maxclass" : "newobj",
					"numinlets" : 4,
					"numoutlets" : 0,
					"patching_rect" : [ 470.333313, 819.0, 128.0, 22.0 ],
					"style" : "",
					"text" : "p-rotate Vir1 footRight"
				}

			}
, 			{
				"box" : 				{
					"id" : "obj-72",
					"maxclass" : "slider",
					"numinlets" : 1,
					"numoutlets" : 1,
					"outlettype" : [ "" ],
					"parameter_enable" : 0,
					"patching_rect" : [ 565.0, 620.0, 20.0, 140.0 ],
					"size" : 256.0,
					"style" : ""
				}

			}
, 			{
				"box" : 				{
					"floatoutput" : 1,
					"id" : "obj-73",
					"maxclass" : "slider",
					"numinlets" : 1,
					"numoutlets" : 1,
					"outlettype" : [ "" ],
					"parameter_enable" : 0,
					"patching_rect" : [ 625.0, 620.0, 20.0, 140.0 ],
					"size" : 5.0,
					"style" : ""
				}

			}
, 			{
				"box" : 				{
					"id" : "obj-74",
					"maxclass" : "slider",
					"numinlets" : 1,
					"numoutlets" : 1,
					"outlettype" : [ "" ],
					"parameter_enable" : 0,
					"patching_rect" : [ 528.0, 620.0, 20.0, 140.0 ],
					"size" : 256.0,
					"style" : ""
				}

			}
, 			{
				"box" : 				{
					"id" : "obj-75",
					"maxclass" : "slider",
					"numinlets" : 1,
					"numoutlets" : 1,
					"outlettype" : [ "" ],
					"parameter_enable" : 0,
					"patching_rect" : [ 489.0, 620.0, 20.0, 140.0 ],
					"size" : 256.0,
					"style" : ""
				}

			}
, 			{
				"box" : 				{
					"id" : "obj-76",
					"maxclass" : "newobj",
					"numinlets" : 4,
					"numoutlets" : 0,
					"patching_rect" : [ 469.0, 783.0, 120.0, 22.0 ],
					"style" : "",
					"text" : "p-rotate Vir1 footLeft"
				}

			}
, 			{
				"box" : 				{
					"id" : "obj-77",
					"maxclass" : "newobj",
					"numinlets" : 2,
					"numoutlets" : 1,
					"outlettype" : [ "int" ],
					"patching_rect" : [ 322.0, 566.0, 75.0, 22.0 ],
					"style" : "",
					"text" : "random 256"
				}

			}
, 			{
				"box" : 				{
					"id" : "obj-78",
					"maxclass" : "newobj",
					"numinlets" : 2,
					"numoutlets" : 1,
					"outlettype" : [ "int" ],
					"patching_rect" : [ 295.0, 539.0, 75.0, 22.0 ],
					"style" : "",
					"text" : "random 256"
				}

			}
, 			{
				"box" : 				{
					"id" : "obj-79",
					"maxclass" : "message",
					"numinlets" : 2,
					"numoutlets" : 1,
					"outlettype" : [ "" ],
					"patching_rect" : [ 415.0, 571.0, 31.0, 22.0 ],
					"style" : "",
					"text" : "127"
				}

			}
, 			{
				"box" : 				{
					"id" : "obj-80",
					"maxclass" : "button",
					"numinlets" : 1,
					"numoutlets" : 1,
					"outlettype" : [ "bang" ],
					"patching_rect" : [ 308.0, 473.0, 24.0, 24.0 ],
					"style" : ""
				}

			}
, 			{
				"box" : 				{
					"id" : "obj-81",
					"maxclass" : "newobj",
					"numinlets" : 2,
					"numoutlets" : 1,
					"outlettype" : [ "int" ],
					"patching_rect" : [ 268.0, 515.0, 75.0, 22.0 ],
					"style" : "",
					"text" : "random 256"
				}

			}
, 			{
				"box" : 				{
					"id" : "obj-82",
					"maxclass" : "newobj",
					"numinlets" : 4,
					"numoutlets" : 0,
					"patching_rect" : [ 245.333328, 819.0, 156.0, 22.0 ],
					"style" : "",
					"text" : "p-rotate Vir1 legRightLower"
				}

			}
, 			{
				"box" : 				{
					"id" : "obj-83",
					"maxclass" : "slider",
					"numinlets" : 1,
					"numoutlets" : 1,
					"outlettype" : [ "" ],
					"parameter_enable" : 0,
					"patching_rect" : [ 340.0, 620.0, 20.0, 140.0 ],
					"size" : 256.0,
					"style" : ""
				}

			}
, 			{
				"box" : 				{
					"floatoutput" : 1,
					"id" : "obj-84",
					"maxclass" : "slider",
					"numinlets" : 1,
					"numoutlets" : 1,
					"outlettype" : [ "" ],
					"parameter_enable" : 0,
					"patching_rect" : [ 400.0, 620.0, 20.0, 140.0 ],
					"size" : 5.0,
					"style" : ""
				}

			}
, 			{
				"box" : 				{
					"id" : "obj-85",
					"maxclass" : "slider",
					"numinlets" : 1,
					"numoutlets" : 1,
					"outlettype" : [ "" ],
					"parameter_enable" : 0,
					"patching_rect" : [ 303.0, 620.0, 20.0, 140.0 ],
					"size" : 256.0,
					"style" : ""
				}

			}
, 			{
				"box" : 				{
					"id" : "obj-86",
					"maxclass" : "slider",
					"numinlets" : 1,
					"numoutlets" : 1,
					"outlettype" : [ "" ],
					"parameter_enable" : 0,
					"patching_rect" : [ 264.0, 620.0, 20.0, 140.0 ],
					"size" : 256.0,
					"style" : ""
				}

			}
, 			{
				"box" : 				{
					"id" : "obj-87",
					"maxclass" : "newobj",
					"numinlets" : 4,
					"numoutlets" : 0,
					"patching_rect" : [ 245.333328, 783.0, 148.0, 22.0 ],
					"style" : "",
					"text" : "p-rotate Vir1 legLeftLower"
				}

			}
, 			{
				"box" : 				{
					"id" : "obj-88",
					"maxclass" : "newobj",
					"numinlets" : 2,
					"numoutlets" : 1,
					"outlettype" : [ "int" ],
					"patching_rect" : [ 86.0, 566.0, 75.0, 22.0 ],
					"style" : "",
					"text" : "random 256"
				}

			}
, 			{
				"box" : 				{
					"id" : "obj-89",
					"maxclass" : "newobj",
					"numinlets" : 2,
					"numoutlets" : 1,
					"outlettype" : [ "int" ],
					"patching_rect" : [ 59.0, 539.0, 75.0, 22.0 ],
					"style" : "",
					"text" : "random 256"
				}

			}
, 			{
				"box" : 				{
					"id" : "obj-90",
					"maxclass" : "message",
					"numinlets" : 2,
					"numoutlets" : 1,
					"outlettype" : [ "" ],
					"patching_rect" : [ 179.0, 571.0, 31.0, 22.0 ],
					"style" : "",
					"text" : "127"
				}

			}
, 			{
				"box" : 				{
					"id" : "obj-91",
					"maxclass" : "button",
					"numinlets" : 1,
					"numoutlets" : 1,
					"outlettype" : [ "bang" ],
					"patching_rect" : [ 72.0, 473.0, 24.0, 24.0 ],
					"style" : ""
				}

			}
, 			{
				"box" : 				{
					"id" : "obj-92",
					"maxclass" : "newobj",
					"numinlets" : 2,
					"numoutlets" : 1,
					"outlettype" : [ "int" ],
					"patching_rect" : [ 32.0, 515.0, 75.0, 22.0 ],
					"style" : "",
					"text" : "random 256"
				}

			}
, 			{
				"box" : 				{
					"id" : "obj-93",
					"maxclass" : "newobj",
					"numinlets" : 4,
					"numoutlets" : 0,
					"patching_rect" : [ 9.333333, 819.0, 156.0, 22.0 ],
					"style" : "",
					"text" : "p-rotate Vir1 legRightUpper"
				}

			}
, 			{
				"box" : 				{
					"id" : "obj-94",
					"maxclass" : "slider",
					"numinlets" : 1,
					"numoutlets" : 1,
					"outlettype" : [ "" ],
					"parameter_enable" : 0,
					"patching_rect" : [ 104.0, 620.0, 20.0, 140.0 ],
					"size" : 256.0,
					"style" : ""
				}

			}
, 			{
				"box" : 				{
					"floatoutput" : 1,
					"id" : "obj-95",
					"maxclass" : "slider",
					"numinlets" : 1,
					"numoutlets" : 1,
					"outlettype" : [ "" ],
					"parameter_enable" : 0,
					"patching_rect" : [ 164.0, 620.0, 20.0, 140.0 ],
					"size" : 5.0,
					"style" : ""
				}

			}
, 			{
				"box" : 				{
					"id" : "obj-96",
					"maxclass" : "slider",
					"numinlets" : 1,
					"numoutlets" : 1,
					"outlettype" : [ "" ],
					"parameter_enable" : 0,
					"patching_rect" : [ 67.0, 620.0, 20.0, 140.0 ],
					"size" : 256.0,
					"style" : ""
				}

			}
, 			{
				"box" : 				{
					"id" : "obj-97",
					"maxclass" : "slider",
					"numinlets" : 1,
					"numoutlets" : 1,
					"outlettype" : [ "" ],
					"parameter_enable" : 0,
					"patching_rect" : [ 28.0, 620.0, 20.0, 140.0 ],
					"size" : 256.0,
					"style" : ""
				}

			}
, 			{
				"box" : 				{
					"id" : "obj-98",
					"maxclass" : "newobj",
					"numinlets" : 4,
					"numoutlets" : 0,
					"patching_rect" : [ 8.0, 783.0, 148.0, 22.0 ],
					"style" : "",
					"text" : "p-rotate Vir1 legLeftUpper"
				}

			}
, 			{
				"box" : 				{
					"id" : "obj-55",
					"maxclass" : "newobj",
					"numinlets" : 2,
					"numoutlets" : 1,
					"outlettype" : [ "int" ],
					"patching_rect" : [ 555.0, 181.0, 75.0, 22.0 ],
					"style" : "",
					"text" : "random 256"
				}

			}
, 			{
				"box" : 				{
					"id" : "obj-56",
					"maxclass" : "newobj",
					"numinlets" : 2,
					"numoutlets" : 1,
					"outlettype" : [ "int" ],
					"patching_rect" : [ 528.0, 154.0, 75.0, 22.0 ],
					"style" : "",
					"text" : "random 256"
				}

			}
, 			{
				"box" : 				{
					"id" : "obj-57",
					"maxclass" : "message",
					"numinlets" : 2,
					"numoutlets" : 1,
					"outlettype" : [ "" ],
					"patching_rect" : [ 648.0, 186.0, 31.0, 22.0 ],
					"style" : "",
					"text" : "127"
				}

			}
, 			{
				"box" : 				{
					"id" : "obj-58",
					"maxclass" : "button",
					"numinlets" : 1,
					"numoutlets" : 1,
					"outlettype" : [ "bang" ],
					"patching_rect" : [ 540.0, 88.0, 24.0, 24.0 ],
					"style" : ""
				}

			}
, 			{
				"box" : 				{
					"id" : "obj-59",
					"maxclass" : "newobj",
					"numinlets" : 2,
					"numoutlets" : 1,
					"outlettype" : [ "int" ],
					"patching_rect" : [ 501.0, 130.0, 75.0, 22.0 ],
					"style" : "",
					"text" : "random 256"
				}

			}
, 			{
				"box" : 				{
					"id" : "obj-60",
					"maxclass" : "newobj",
					"numinlets" : 4,
					"numoutlets" : 0,
					"patching_rect" : [ 478.333313, 434.0, 134.0, 22.0 ],
					"style" : "",
					"text" : "p-rotate Vir1 handRight"
				}

			}
, 			{
				"box" : 				{
					"id" : "obj-61",
					"maxclass" : "slider",
					"numinlets" : 1,
					"numoutlets" : 1,
					"outlettype" : [ "" ],
					"parameter_enable" : 0,
					"patching_rect" : [ 573.0, 235.0, 20.0, 140.0 ],
					"size" : 256.0,
					"style" : ""
				}

			}
, 			{
				"box" : 				{
					"floatoutput" : 1,
					"id" : "obj-62",
					"maxclass" : "slider",
					"numinlets" : 1,
					"numoutlets" : 1,
					"outlettype" : [ "" ],
					"parameter_enable" : 0,
					"patching_rect" : [ 633.0, 235.0, 20.0, 140.0 ],
					"size" : 5.0,
					"style" : ""
				}

			}
, 			{
				"box" : 				{
					"id" : "obj-63",
					"maxclass" : "slider",
					"numinlets" : 1,
					"numoutlets" : 1,
					"outlettype" : [ "" ],
					"parameter_enable" : 0,
					"patching_rect" : [ 536.0, 235.0, 20.0, 140.0 ],
					"size" : 256.0,
					"style" : ""
				}

			}
, 			{
				"box" : 				{
					"id" : "obj-64",
					"maxclass" : "slider",
					"numinlets" : 1,
					"numoutlets" : 1,
					"outlettype" : [ "" ],
					"parameter_enable" : 0,
					"patching_rect" : [ 497.0, 235.0, 20.0, 140.0 ],
					"size" : 256.0,
					"style" : ""
				}

			}
, 			{
				"box" : 				{
					"id" : "obj-65",
					"maxclass" : "newobj",
					"numinlets" : 4,
					"numoutlets" : 0,
					"patching_rect" : [ 477.0, 398.0, 126.0, 22.0 ],
					"style" : "",
					"text" : "p-rotate Vir1 handLeft"
				}

			}
, 			{
				"box" : 				{
					"id" : "obj-44",
					"maxclass" : "newobj",
					"numinlets" : 2,
					"numoutlets" : 1,
					"outlettype" : [ "int" ],
					"patching_rect" : [ 330.0, 181.0, 75.0, 22.0 ],
					"style" : "",
					"text" : "random 256"
				}

			}
, 			{
				"box" : 				{
					"id" : "obj-45",
					"maxclass" : "newobj",
					"numinlets" : 2,
					"numoutlets" : 1,
					"outlettype" : [ "int" ],
					"patching_rect" : [ 303.0, 154.0, 75.0, 22.0 ],
					"style" : "",
					"text" : "random 256"
				}

			}
, 			{
				"box" : 				{
					"id" : "obj-46",
					"maxclass" : "message",
					"numinlets" : 2,
					"numoutlets" : 1,
					"outlettype" : [ "" ],
					"patching_rect" : [ 423.0, 186.0, 31.0, 22.0 ],
					"style" : "",
					"text" : "127"
				}

			}
, 			{
				"box" : 				{
					"id" : "obj-47",
					"maxclass" : "button",
					"numinlets" : 1,
					"numoutlets" : 1,
					"outlettype" : [ "bang" ],
					"patching_rect" : [ 316.0, 88.0, 24.0, 24.0 ],
					"style" : ""
				}

			}
, 			{
				"box" : 				{
					"id" : "obj-48",
					"maxclass" : "newobj",
					"numinlets" : 2,
					"numoutlets" : 1,
					"outlettype" : [ "int" ],
					"patching_rect" : [ 276.0, 130.0, 75.0, 22.0 ],
					"style" : "",
					"text" : "random 256"
				}

			}
, 			{
				"box" : 				{
					"id" : "obj-49",
					"maxclass" : "newobj",
					"numinlets" : 4,
					"numoutlets" : 0,
					"patching_rect" : [ 253.333328, 434.0, 161.0, 22.0 ],
					"style" : "",
					"text" : "p-rotate Vir1 armRightLower"
				}

			}
, 			{
				"box" : 				{
					"id" : "obj-50",
					"maxclass" : "slider",
					"numinlets" : 1,
					"numoutlets" : 1,
					"outlettype" : [ "" ],
					"parameter_enable" : 0,
					"patching_rect" : [ 348.0, 235.0, 20.0, 140.0 ],
					"size" : 256.0,
					"style" : ""
				}

			}
, 			{
				"box" : 				{
					"floatoutput" : 1,
					"id" : "obj-51",
					"maxclass" : "slider",
					"numinlets" : 1,
					"numoutlets" : 1,
					"outlettype" : [ "" ],
					"parameter_enable" : 0,
					"patching_rect" : [ 408.0, 235.0, 20.0, 140.0 ],
					"size" : 5.0,
					"style" : ""
				}

			}
, 			{
				"box" : 				{
					"id" : "obj-52",
					"maxclass" : "slider",
					"numinlets" : 1,
					"numoutlets" : 1,
					"outlettype" : [ "" ],
					"parameter_enable" : 0,
					"patching_rect" : [ 311.0, 235.0, 20.0, 140.0 ],
					"size" : 256.0,
					"style" : ""
				}

			}
, 			{
				"box" : 				{
					"id" : "obj-53",
					"maxclass" : "slider",
					"numinlets" : 1,
					"numoutlets" : 1,
					"outlettype" : [ "" ],
					"parameter_enable" : 0,
					"patching_rect" : [ 272.0, 235.0, 20.0, 140.0 ],
					"size" : 256.0,
					"style" : ""
				}

			}
, 			{
				"box" : 				{
					"id" : "obj-54",
					"maxclass" : "newobj",
					"numinlets" : 4,
					"numoutlets" : 0,
					"patching_rect" : [ 252.0, 398.0, 153.0, 22.0 ],
					"style" : "",
					"text" : "p-rotate Vir1 armLeftLower"
				}

			}
, 			{
				"box" : 				{
					"id" : "obj-43",
					"maxclass" : "newobj",
					"numinlets" : 2,
					"numoutlets" : 1,
					"outlettype" : [ "int" ],
					"patching_rect" : [ 94.0, 181.0, 75.0, 22.0 ],
					"style" : "",
					"text" : "random 256"
				}

			}
, 			{
				"box" : 				{
					"id" : "obj-42",
					"maxclass" : "newobj",
					"numinlets" : 2,
					"numoutlets" : 1,
					"outlettype" : [ "int" ],
					"patching_rect" : [ 67.0, 154.0, 75.0, 22.0 ],
					"style" : "",
					"text" : "random 256"
				}

			}
, 			{
				"box" : 				{
					"id" : "obj-23",
					"maxclass" : "message",
					"numinlets" : 2,
					"numoutlets" : 1,
					"outlettype" : [ "" ],
					"patching_rect" : [ 187.0, 186.0, 31.0, 22.0 ],
					"style" : "",
					"text" : "127"
				}

			}
, 			{
				"box" : 				{
					"id" : "obj-20",
					"maxclass" : "button",
					"numinlets" : 1,
					"numoutlets" : 1,
					"outlettype" : [ "bang" ],
					"patching_rect" : [ 80.0, 88.0, 24.0, 24.0 ],
					"style" : ""
				}

			}
, 			{
				"box" : 				{
					"id" : "obj-8",
					"maxclass" : "newobj",
					"numinlets" : 2,
					"numoutlets" : 1,
					"outlettype" : [ "int" ],
					"patching_rect" : [ 40.0, 130.0, 75.0, 22.0 ],
					"style" : "",
					"text" : "random 256"
				}

			}
, 			{
				"box" : 				{
					"id" : "obj-6",
					"maxclass" : "newobj",
					"numinlets" : 4,
					"numoutlets" : 0,
					"patching_rect" : [ 17.333334, 434.0, 161.0, 22.0 ],
					"style" : "",
					"text" : "p-rotate Vir1 armRightUpper"
				}

			}
, 			{
				"box" : 				{
					"id" : "obj-1",
					"maxclass" : "slider",
					"numinlets" : 1,
					"numoutlets" : 1,
					"outlettype" : [ "" ],
					"parameter_enable" : 0,
					"patching_rect" : [ 112.0, 235.0, 20.0, 140.0 ],
					"size" : 256.0,
					"style" : ""
				}

			}
, 			{
				"box" : 				{
					"floatoutput" : 1,
					"id" : "obj-2",
					"maxclass" : "slider",
					"numinlets" : 1,
					"numoutlets" : 1,
					"outlettype" : [ "" ],
					"parameter_enable" : 0,
					"patching_rect" : [ 172.0, 235.0, 20.0, 140.0 ],
					"size" : 5.0,
					"style" : ""
				}

			}
, 			{
				"box" : 				{
					"id" : "obj-3",
					"maxclass" : "slider",
					"numinlets" : 1,
					"numoutlets" : 1,
					"outlettype" : [ "" ],
					"parameter_enable" : 0,
					"patching_rect" : [ 75.0, 235.0, 20.0, 140.0 ],
					"size" : 256.0,
					"style" : ""
				}

			}
, 			{
				"box" : 				{
					"id" : "obj-4",
					"maxclass" : "slider",
					"numinlets" : 1,
					"numoutlets" : 1,
					"outlettype" : [ "" ],
					"parameter_enable" : 0,
					"patching_rect" : [ 36.0, 235.0, 20.0, 140.0 ],
					"size" : 256.0,
					"style" : ""
				}

			}
, 			{
				"box" : 				{
					"id" : "obj-5",
					"maxclass" : "newobj",
					"numinlets" : 4,
					"numoutlets" : 0,
					"patching_rect" : [ 16.0, 398.0, 153.0, 22.0 ],
					"style" : "",
					"text" : "p-rotate Vir1 armLeftUpper"
				}

			}
 ],
		"lines" : [ 			{
				"patchline" : 				{
					"destination" : [ "obj-5", 2 ],
					"disabled" : 0,
					"hidden" : 0,
					"source" : [ "obj-1", 0 ]
				}

			}
, 			{
				"patchline" : 				{
					"destination" : [ "obj-6", 2 ],
					"disabled" : 0,
					"hidden" : 0,
					"source" : [ "obj-1", 0 ]
				}

			}
, 			{
				"patchline" : 				{
					"destination" : [ "obj-107", 0 ],
					"disabled" : 0,
					"hidden" : 0,
					"source" : [ "obj-100", 0 ]
				}

			}
, 			{
				"patchline" : 				{
					"destination" : [ "obj-105", 0 ],
					"disabled" : 0,
					"hidden" : 0,
					"source" : [ "obj-101", 0 ]
				}

			}
, 			{
				"patchline" : 				{
					"destination" : [ "obj-107", 0 ],
					"disabled" : 0,
					"hidden" : 0,
					"source" : [ "obj-101", 0 ]
				}

			}
, 			{
				"patchline" : 				{
					"destination" : [ "obj-108", 0 ],
					"disabled" : 0,
					"hidden" : 0,
					"source" : [ "obj-101", 0 ]
				}

			}
, 			{
				"patchline" : 				{
					"destination" : [ "obj-100", 0 ],
					"disabled" : 0,
					"hidden" : 0,
					"source" : [ "obj-102", 0 ]
				}

			}
, 			{
				"patchline" : 				{
					"destination" : [ "obj-103", 0 ],
					"disabled" : 0,
					"hidden" : 0,
					"source" : [ "obj-102", 0 ]
				}

			}
, 			{
				"patchline" : 				{
					"destination" : [ "obj-99", 0 ],
					"disabled" : 0,
					"hidden" : 0,
					"source" : [ "obj-102", 0 ]
				}

			}
, 			{
				"patchline" : 				{
					"destination" : [ "obj-108", 0 ],
					"disabled" : 0,
					"hidden" : 0,
					"source" : [ "obj-103", 0 ]
				}

			}
, 			{
				"patchline" : 				{
					"destination" : [ "obj-109", 2 ],
					"disabled" : 0,
					"hidden" : 0,
					"source" : [ "obj-105", 0 ]
				}

			}
, 			{
				"patchline" : 				{
					"destination" : [ "obj-109", 3 ],
					"disabled" : 0,
					"hidden" : 0,
					"source" : [ "obj-106", 0 ]
				}

			}
, 			{
				"patchline" : 				{
					"destination" : [ "obj-109", 1 ],
					"disabled" : 0,
					"hidden" : 0,
					"source" : [ "obj-107", 0 ]
				}

			}
, 			{
				"patchline" : 				{
					"destination" : [ "obj-109", 0 ],
					"disabled" : 0,
					"hidden" : 0,
					"source" : [ "obj-108", 0 ]
				}

			}
, 			{
				"patchline" : 				{
					"destination" : [ "obj-116", 0 ],
					"disabled" : 0,
					"hidden" : 0,
					"source" : [ "obj-110", 0 ]
				}

			}
, 			{
				"patchline" : 				{
					"destination" : [ "obj-118", 0 ],
					"disabled" : 0,
					"hidden" : 0,
					"source" : [ "obj-111", 0 ]
				}

			}
, 			{
				"patchline" : 				{
					"destination" : [ "obj-116", 0 ],
					"disabled" : 0,
					"hidden" : 0,
					"source" : [ "obj-112", 0 ]
				}

			}
, 			{
				"patchline" : 				{
					"destination" : [ "obj-118", 0 ],
					"disabled" : 0,
					"hidden" : 0,
					"source" : [ "obj-112", 0 ]
				}

			}
, 			{
				"patchline" : 				{
					"destination" : [ "obj-119", 0 ],
					"disabled" : 0,
					"hidden" : 0,
					"source" : [ "obj-112", 0 ]
				}

			}
, 			{
				"patchline" : 				{
					"destination" : [ "obj-110", 0 ],
					"disabled" : 0,
					"hidden" : 0,
					"source" : [ "obj-113", 0 ]
				}

			}
, 			{
				"patchline" : 				{
					"destination" : [ "obj-111", 0 ],
					"disabled" : 0,
					"hidden" : 0,
					"source" : [ "obj-113", 0 ]
				}

			}
, 			{
				"patchline" : 				{
					"destination" : [ "obj-114", 0 ],
					"disabled" : 0,
					"hidden" : 0,
					"source" : [ "obj-113", 0 ]
				}

			}
, 			{
				"patchline" : 				{
					"destination" : [ "obj-119", 0 ],
					"disabled" : 0,
					"hidden" : 0,
					"source" : [ "obj-114", 0 ]
				}

			}
, 			{
				"patchline" : 				{
					"destination" : [ "obj-120", 2 ],
					"disabled" : 0,
					"hidden" : 0,
					"source" : [ "obj-116", 0 ]
				}

			}
, 			{
				"patchline" : 				{
					"destination" : [ "obj-120", 3 ],
					"disabled" : 0,
					"hidden" : 0,
					"source" : [ "obj-117", 0 ]
				}

			}
, 			{
				"patchline" : 				{
					"destination" : [ "obj-120", 1 ],
					"disabled" : 0,
					"hidden" : 0,
					"source" : [ "obj-118", 0 ]
				}

			}
, 			{
				"patchline" : 				{
					"destination" : [ "obj-120", 0 ],
					"disabled" : 0,
					"hidden" : 0,
					"source" : [ "obj-119", 0 ]
				}

			}
, 			{
				"patchline" : 				{
					"destination" : [ "obj-127", 0 ],
					"disabled" : 0,
					"hidden" : 0,
					"source" : [ "obj-121", 0 ]
				}

			}
, 			{
				"patchline" : 				{
					"destination" : [ "obj-129", 0 ],
					"disabled" : 0,
					"hidden" : 0,
					"source" : [ "obj-122", 0 ]
				}

			}
, 			{
				"patchline" : 				{
					"destination" : [ "obj-127", 0 ],
					"disabled" : 0,
					"hidden" : 0,
					"source" : [ "obj-123", 0 ]
				}

			}
, 			{
				"patchline" : 				{
					"destination" : [ "obj-129", 0 ],
					"disabled" : 0,
					"hidden" : 0,
					"source" : [ "obj-123", 0 ]
				}

			}
, 			{
				"patchline" : 				{
					"destination" : [ "obj-130", 0 ],
					"disabled" : 0,
					"hidden" : 0,
					"source" : [ "obj-123", 0 ]
				}

			}
, 			{
				"patchline" : 				{
					"destination" : [ "obj-121", 0 ],
					"disabled" : 0,
					"hidden" : 0,
					"source" : [ "obj-124", 0 ]
				}

			}
, 			{
				"patchline" : 				{
					"destination" : [ "obj-122", 0 ],
					"disabled" : 0,
					"hidden" : 0,
					"source" : [ "obj-124", 0 ]
				}

			}
, 			{
				"patchline" : 				{
					"destination" : [ "obj-125", 0 ],
					"disabled" : 0,
					"hidden" : 0,
					"source" : [ "obj-124", 0 ]
				}

			}
, 			{
				"patchline" : 				{
					"destination" : [ "obj-130", 0 ],
					"disabled" : 0,
					"hidden" : 0,
					"source" : [ "obj-125", 0 ]
				}

			}
, 			{
				"patchline" : 				{
					"destination" : [ "obj-131", 2 ],
					"disabled" : 0,
					"hidden" : 0,
					"source" : [ "obj-127", 0 ]
				}

			}
, 			{
				"patchline" : 				{
					"destination" : [ "obj-131", 3 ],
					"disabled" : 0,
					"hidden" : 0,
					"source" : [ "obj-128", 0 ]
				}

			}
, 			{
				"patchline" : 				{
					"destination" : [ "obj-131", 1 ],
					"disabled" : 0,
					"hidden" : 0,
					"source" : [ "obj-129", 0 ]
				}

			}
, 			{
				"patchline" : 				{
					"destination" : [ "obj-131", 0 ],
					"disabled" : 0,
					"hidden" : 0,
					"source" : [ "obj-130", 0 ]
				}

			}
, 			{
				"patchline" : 				{
					"destination" : [ "obj-20", 0 ],
					"disabled" : 0,
					"hidden" : 0,
					"source" : [ "obj-133", 0 ]
				}

			}
, 			{
				"patchline" : 				{
					"destination" : [ "obj-47", 0 ],
					"disabled" : 0,
					"hidden" : 0,
					"source" : [ "obj-133", 0 ]
				}

			}
, 			{
				"patchline" : 				{
					"destination" : [ "obj-58", 0 ],
					"disabled" : 0,
					"hidden" : 0,
					"source" : [ "obj-133", 0 ]
				}

			}
, 			{
				"patchline" : 				{
					"destination" : [ "obj-5", 3 ],
					"disabled" : 0,
					"hidden" : 0,
					"source" : [ "obj-2", 0 ]
				}

			}
, 			{
				"patchline" : 				{
					"destination" : [ "obj-42", 0 ],
					"disabled" : 0,
					"hidden" : 0,
					"source" : [ "obj-20", 0 ]
				}

			}
, 			{
				"patchline" : 				{
					"destination" : [ "obj-43", 0 ],
					"disabled" : 0,
					"hidden" : 0,
					"source" : [ "obj-20", 0 ]
				}

			}
, 			{
				"patchline" : 				{
					"destination" : [ "obj-8", 0 ],
					"disabled" : 0,
					"hidden" : 0,
					"source" : [ "obj-20", 0 ]
				}

			}
, 			{
				"patchline" : 				{
					"destination" : [ "obj-1", 0 ],
					"disabled" : 0,
					"hidden" : 0,
					"source" : [ "obj-23", 0 ]
				}

			}
, 			{
				"patchline" : 				{
					"destination" : [ "obj-3", 0 ],
					"disabled" : 0,
					"hidden" : 0,
					"source" : [ "obj-23", 0 ]
				}

			}
, 			{
				"patchline" : 				{
					"destination" : [ "obj-4", 0 ],
					"disabled" : 0,
					"hidden" : 0,
					"source" : [ "obj-23", 0 ]
				}

			}
, 			{
				"patchline" : 				{
					"destination" : [ "obj-5", 1 ],
					"disabled" : 0,
					"hidden" : 0,
					"source" : [ "obj-3", 0 ]
				}

			}
, 			{
				"patchline" : 				{
					"destination" : [ "obj-6", 1 ],
					"disabled" : 0,
					"hidden" : 0,
					"source" : [ "obj-3", 0 ]
				}

			}
, 			{
				"patchline" : 				{
					"destination" : [ "obj-5", 0 ],
					"disabled" : 0,
					"hidden" : 0,
					"source" : [ "obj-4", 0 ]
				}

			}
, 			{
				"patchline" : 				{
					"destination" : [ "obj-6", 0 ],
					"disabled" : 0,
					"hidden" : 0,
					"source" : [ "obj-4", 0 ]
				}

			}
, 			{
				"patchline" : 				{
					"destination" : [ "obj-3", 0 ],
					"disabled" : 0,
					"hidden" : 0,
					"source" : [ "obj-42", 0 ]
				}

			}
, 			{
				"patchline" : 				{
					"destination" : [ "obj-1", 0 ],
					"disabled" : 0,
					"hidden" : 0,
					"source" : [ "obj-43", 0 ]
				}

			}
, 			{
				"patchline" : 				{
					"destination" : [ "obj-50", 0 ],
					"disabled" : 0,
					"hidden" : 0,
					"source" : [ "obj-44", 0 ]
				}

			}
, 			{
				"patchline" : 				{
					"destination" : [ "obj-52", 0 ],
					"disabled" : 0,
					"hidden" : 0,
					"source" : [ "obj-45", 0 ]
				}

			}
, 			{
				"patchline" : 				{
					"destination" : [ "obj-50", 0 ],
					"disabled" : 0,
					"hidden" : 0,
					"source" : [ "obj-46", 0 ]
				}

			}
, 			{
				"patchline" : 				{
					"destination" : [ "obj-52", 0 ],
					"disabled" : 0,
					"hidden" : 0,
					"source" : [ "obj-46", 0 ]
				}

			}
, 			{
				"patchline" : 				{
					"destination" : [ "obj-53", 0 ],
					"disabled" : 0,
					"hidden" : 0,
					"source" : [ "obj-46", 0 ]
				}

			}
, 			{
				"patchline" : 				{
					"destination" : [ "obj-44", 0 ],
					"disabled" : 0,
					"hidden" : 0,
					"source" : [ "obj-47", 0 ]
				}

			}
, 			{
				"patchline" : 				{
					"destination" : [ "obj-45", 0 ],
					"disabled" : 0,
					"hidden" : 0,
					"source" : [ "obj-47", 0 ]
				}

			}
, 			{
				"patchline" : 				{
					"destination" : [ "obj-48", 0 ],
					"disabled" : 0,
					"hidden" : 0,
					"source" : [ "obj-47", 0 ]
				}

			}
, 			{
				"patchline" : 				{
					"destination" : [ "obj-53", 0 ],
					"disabled" : 0,
					"hidden" : 0,
					"source" : [ "obj-48", 0 ]
				}

			}
, 			{
				"patchline" : 				{
					"destination" : [ "obj-49", 2 ],
					"disabled" : 0,
					"hidden" : 0,
					"source" : [ "obj-50", 0 ]
				}

			}
, 			{
				"patchline" : 				{
					"destination" : [ "obj-54", 2 ],
					"disabled" : 0,
					"hidden" : 0,
					"source" : [ "obj-50", 0 ]
				}

			}
, 			{
				"patchline" : 				{
					"destination" : [ "obj-54", 3 ],
					"disabled" : 0,
					"hidden" : 0,
					"source" : [ "obj-51", 0 ]
				}

			}
, 			{
				"patchline" : 				{
					"destination" : [ "obj-49", 1 ],
					"disabled" : 0,
					"hidden" : 0,
					"source" : [ "obj-52", 0 ]
				}

			}
, 			{
				"patchline" : 				{
					"destination" : [ "obj-54", 1 ],
					"disabled" : 0,
					"hidden" : 0,
					"source" : [ "obj-52", 0 ]
				}

			}
, 			{
				"patchline" : 				{
					"destination" : [ "obj-49", 0 ],
					"disabled" : 0,
					"hidden" : 0,
					"source" : [ "obj-53", 0 ]
				}

			}
, 			{
				"patchline" : 				{
					"destination" : [ "obj-54", 0 ],
					"disabled" : 0,
					"hidden" : 0,
					"source" : [ "obj-53", 0 ]
				}

			}
, 			{
				"patchline" : 				{
					"destination" : [ "obj-61", 0 ],
					"disabled" : 0,
					"hidden" : 0,
					"source" : [ "obj-55", 0 ]
				}

			}
, 			{
				"patchline" : 				{
					"destination" : [ "obj-63", 0 ],
					"disabled" : 0,
					"hidden" : 0,
					"source" : [ "obj-56", 0 ]
				}

			}
, 			{
				"patchline" : 				{
					"destination" : [ "obj-61", 0 ],
					"disabled" : 0,
					"hidden" : 0,
					"source" : [ "obj-57", 0 ]
				}

			}
, 			{
				"patchline" : 				{
					"destination" : [ "obj-63", 0 ],
					"disabled" : 0,
					"hidden" : 0,
					"source" : [ "obj-57", 0 ]
				}

			}
, 			{
				"patchline" : 				{
					"destination" : [ "obj-64", 0 ],
					"disabled" : 0,
					"hidden" : 0,
					"source" : [ "obj-57", 0 ]
				}

			}
, 			{
				"patchline" : 				{
					"destination" : [ "obj-55", 0 ],
					"disabled" : 0,
					"hidden" : 0,
					"source" : [ "obj-58", 0 ]
				}

			}
, 			{
				"patchline" : 				{
					"destination" : [ "obj-56", 0 ],
					"disabled" : 0,
					"hidden" : 0,
					"source" : [ "obj-58", 0 ]
				}

			}
, 			{
				"patchline" : 				{
					"destination" : [ "obj-59", 0 ],
					"disabled" : 0,
					"hidden" : 0,
					"source" : [ "obj-58", 0 ]
				}

			}
, 			{
				"patchline" : 				{
					"destination" : [ "obj-64", 0 ],
					"disabled" : 0,
					"hidden" : 0,
					"source" : [ "obj-59", 0 ]
				}

			}
, 			{
				"patchline" : 				{
					"destination" : [ "obj-60", 2 ],
					"disabled" : 0,
					"hidden" : 0,
					"source" : [ "obj-61", 0 ]
				}

			}
, 			{
				"patchline" : 				{
					"destination" : [ "obj-65", 3 ],
					"disabled" : 0,
					"hidden" : 0,
					"source" : [ "obj-62", 0 ]
				}

			}
, 			{
				"patchline" : 				{
					"destination" : [ "obj-60", 1 ],
					"disabled" : 0,
					"hidden" : 0,
					"source" : [ "obj-63", 0 ]
				}

			}
, 			{
				"patchline" : 				{
					"destination" : [ "obj-60", 0 ],
					"disabled" : 0,
					"hidden" : 0,
					"source" : [ "obj-64", 0 ]
				}

			}
, 			{
				"patchline" : 				{
					"destination" : [ "obj-72", 0 ],
					"disabled" : 0,
					"hidden" : 0,
					"source" : [ "obj-66", 0 ]
				}

			}
, 			{
				"patchline" : 				{
					"destination" : [ "obj-74", 0 ],
					"disabled" : 0,
					"hidden" : 0,
					"source" : [ "obj-67", 0 ]
				}

			}
, 			{
				"patchline" : 				{
					"destination" : [ "obj-72", 0 ],
					"disabled" : 0,
					"hidden" : 0,
					"source" : [ "obj-68", 0 ]
				}

			}
, 			{
				"patchline" : 				{
					"destination" : [ "obj-74", 0 ],
					"disabled" : 0,
					"hidden" : 0,
					"source" : [ "obj-68", 0 ]
				}

			}
, 			{
				"patchline" : 				{
					"destination" : [ "obj-75", 0 ],
					"disabled" : 0,
					"hidden" : 0,
					"source" : [ "obj-68", 0 ]
				}

			}
, 			{
				"patchline" : 				{
					"destination" : [ "obj-66", 0 ],
					"disabled" : 0,
					"hidden" : 0,
					"source" : [ "obj-69", 0 ]
				}

			}
, 			{
				"patchline" : 				{
					"destination" : [ "obj-67", 0 ],
					"disabled" : 0,
					"hidden" : 0,
					"source" : [ "obj-69", 0 ]
				}

			}
, 			{
				"patchline" : 				{
					"destination" : [ "obj-70", 0 ],
					"disabled" : 0,
					"hidden" : 0,
					"source" : [ "obj-69", 0 ]
				}

			}
, 			{
				"patchline" : 				{
					"destination" : [ "obj-75", 0 ],
					"disabled" : 0,
					"hidden" : 0,
					"source" : [ "obj-70", 0 ]
				}

			}
, 			{
				"patchline" : 				{
					"destination" : [ "obj-71", 2 ],
					"disabled" : 0,
					"hidden" : 0,
					"source" : [ "obj-72", 0 ]
				}

			}
, 			{
				"patchline" : 				{
					"destination" : [ "obj-76", 2 ],
					"disabled" : 0,
					"hidden" : 0,
					"source" : [ "obj-72", 0 ]
				}

			}
, 			{
				"patchline" : 				{
					"destination" : [ "obj-76", 3 ],
					"disabled" : 0,
					"hidden" : 0,
					"source" : [ "obj-73", 0 ]
				}

			}
, 			{
				"patchline" : 				{
					"destination" : [ "obj-71", 1 ],
					"disabled" : 0,
					"hidden" : 0,
					"source" : [ "obj-74", 0 ]
				}

			}
, 			{
				"patchline" : 				{
					"destination" : [ "obj-76", 1 ],
					"disabled" : 0,
					"hidden" : 0,
					"source" : [ "obj-74", 0 ]
				}

			}
, 			{
				"patchline" : 				{
					"destination" : [ "obj-71", 0 ],
					"disabled" : 0,
					"hidden" : 0,
					"source" : [ "obj-75", 0 ]
				}

			}
, 			{
				"patchline" : 				{
					"destination" : [ "obj-76", 0 ],
					"disabled" : 0,
					"hidden" : 0,
					"source" : [ "obj-75", 0 ]
				}

			}
, 			{
				"patchline" : 				{
					"destination" : [ "obj-83", 0 ],
					"disabled" : 0,
					"hidden" : 0,
					"source" : [ "obj-77", 0 ]
				}

			}
, 			{
				"patchline" : 				{
					"destination" : [ "obj-85", 0 ],
					"disabled" : 0,
					"hidden" : 0,
					"source" : [ "obj-78", 0 ]
				}

			}
, 			{
				"patchline" : 				{
					"destination" : [ "obj-83", 0 ],
					"disabled" : 0,
					"hidden" : 0,
					"source" : [ "obj-79", 0 ]
				}

			}
, 			{
				"patchline" : 				{
					"destination" : [ "obj-85", 0 ],
					"disabled" : 0,
					"hidden" : 0,
					"source" : [ "obj-79", 0 ]
				}

			}
, 			{
				"patchline" : 				{
					"destination" : [ "obj-86", 0 ],
					"disabled" : 0,
					"hidden" : 0,
					"source" : [ "obj-79", 0 ]
				}

			}
, 			{
				"patchline" : 				{
					"destination" : [ "obj-4", 0 ],
					"disabled" : 0,
					"hidden" : 0,
					"source" : [ "obj-8", 0 ]
				}

			}
, 			{
				"patchline" : 				{
					"destination" : [ "obj-77", 0 ],
					"disabled" : 0,
					"hidden" : 0,
					"source" : [ "obj-80", 0 ]
				}

			}
, 			{
				"patchline" : 				{
					"destination" : [ "obj-78", 0 ],
					"disabled" : 0,
					"hidden" : 0,
					"source" : [ "obj-80", 0 ]
				}

			}
, 			{
				"patchline" : 				{
					"destination" : [ "obj-81", 0 ],
					"disabled" : 0,
					"hidden" : 0,
					"source" : [ "obj-80", 0 ]
				}

			}
, 			{
				"patchline" : 				{
					"destination" : [ "obj-86", 0 ],
					"disabled" : 0,
					"hidden" : 0,
					"source" : [ "obj-81", 0 ]
				}

			}
, 			{
				"patchline" : 				{
					"destination" : [ "obj-82", 2 ],
					"disabled" : 0,
					"hidden" : 0,
					"source" : [ "obj-83", 0 ]
				}

			}
, 			{
				"patchline" : 				{
					"destination" : [ "obj-87", 2 ],
					"disabled" : 0,
					"hidden" : 0,
					"source" : [ "obj-83", 0 ]
				}

			}
, 			{
				"patchline" : 				{
					"destination" : [ "obj-87", 3 ],
					"disabled" : 0,
					"hidden" : 0,
					"source" : [ "obj-84", 0 ]
				}

			}
, 			{
				"patchline" : 				{
					"destination" : [ "obj-82", 1 ],
					"disabled" : 0,
					"hidden" : 0,
					"source" : [ "obj-85", 0 ]
				}

			}
, 			{
				"patchline" : 				{
					"destination" : [ "obj-87", 1 ],
					"disabled" : 0,
					"hidden" : 0,
					"source" : [ "obj-85", 0 ]
				}

			}
, 			{
				"patchline" : 				{
					"destination" : [ "obj-82", 0 ],
					"disabled" : 0,
					"hidden" : 0,
					"source" : [ "obj-86", 0 ]
				}

			}
, 			{
				"patchline" : 				{
					"destination" : [ "obj-87", 0 ],
					"disabled" : 0,
					"hidden" : 0,
					"source" : [ "obj-86", 0 ]
				}

			}
, 			{
				"patchline" : 				{
					"destination" : [ "obj-94", 0 ],
					"disabled" : 0,
					"hidden" : 0,
					"source" : [ "obj-88", 0 ]
				}

			}
, 			{
				"patchline" : 				{
					"destination" : [ "obj-96", 0 ],
					"disabled" : 0,
					"hidden" : 0,
					"source" : [ "obj-89", 0 ]
				}

			}
, 			{
				"patchline" : 				{
					"destination" : [ "obj-94", 0 ],
					"disabled" : 0,
					"hidden" : 0,
					"source" : [ "obj-90", 0 ]
				}

			}
, 			{
				"patchline" : 				{
					"destination" : [ "obj-96", 0 ],
					"disabled" : 0,
					"hidden" : 0,
					"source" : [ "obj-90", 0 ]
				}

			}
, 			{
				"patchline" : 				{
					"destination" : [ "obj-97", 0 ],
					"disabled" : 0,
					"hidden" : 0,
					"source" : [ "obj-90", 0 ]
				}

			}
, 			{
				"patchline" : 				{
					"destination" : [ "obj-88", 0 ],
					"disabled" : 0,
					"hidden" : 0,
					"source" : [ "obj-91", 0 ]
				}

			}
, 			{
				"patchline" : 				{
					"destination" : [ "obj-89", 0 ],
					"disabled" : 0,
					"hidden" : 0,
					"source" : [ "obj-91", 0 ]
				}

			}
, 			{
				"patchline" : 				{
					"destination" : [ "obj-92", 0 ],
					"disabled" : 0,
					"hidden" : 0,
					"source" : [ "obj-91", 0 ]
				}

			}
, 			{
				"patchline" : 				{
					"destination" : [ "obj-97", 0 ],
					"disabled" : 0,
					"hidden" : 0,
					"source" : [ "obj-92", 0 ]
				}

			}
, 			{
				"patchline" : 				{
					"destination" : [ "obj-93", 2 ],
					"disabled" : 0,
					"hidden" : 0,
					"source" : [ "obj-94", 0 ]
				}

			}
, 			{
				"patchline" : 				{
					"destination" : [ "obj-98", 2 ],
					"disabled" : 0,
					"hidden" : 0,
					"source" : [ "obj-94", 0 ]
				}

			}
, 			{
				"patchline" : 				{
					"destination" : [ "obj-98", 3 ],
					"disabled" : 0,
					"hidden" : 0,
					"source" : [ "obj-95", 0 ]
				}

			}
, 			{
				"patchline" : 				{
					"destination" : [ "obj-93", 1 ],
					"disabled" : 0,
					"hidden" : 0,
					"source" : [ "obj-96", 0 ]
				}

			}
, 			{
				"patchline" : 				{
					"destination" : [ "obj-98", 1 ],
					"disabled" : 0,
					"hidden" : 0,
					"source" : [ "obj-96", 0 ]
				}

			}
, 			{
				"patchline" : 				{
					"destination" : [ "obj-93", 0 ],
					"disabled" : 0,
					"hidden" : 0,
					"source" : [ "obj-97", 0 ]
				}

			}
, 			{
				"patchline" : 				{
					"destination" : [ "obj-98", 0 ],
					"disabled" : 0,
					"hidden" : 0,
					"source" : [ "obj-97", 0 ]
				}

			}
, 			{
				"patchline" : 				{
					"destination" : [ "obj-105", 0 ],
					"disabled" : 0,
					"hidden" : 0,
					"source" : [ "obj-99", 0 ]
				}

			}
 ],
		"dependency_cache" : [ 			{
				"name" : "p-rotate.maxpat",
				"bootpath" : "D:/pianola/Max-examples",
				"type" : "JSON",
				"implicit" : 1
			}
, 			{
				"name" : "VirtualBot.maxpat",
				"bootpath" : "D:/pianola/Max-examples",
				"type" : "JSON",
				"implicit" : 1
			}
 ],
		"autosave" : 0
	}

}
